<svg width="200" height="200" viewBox="0 0 200 200" fill="none" xmlns="http://www.w3.org/2000/svg">
<circle cx="100" cy="100" r="99.5" fill="black" stroke="#231C1C"/>
<circle cx="100" cy="100" r="75.5" stroke="#231C1C"/>
<circle cx="100" cy="100" r="70.5" stroke="#231C1C"/>
<circle cx="100" cy="100" r="65.5" stroke="#231C1C"/>
<circle cx="100" cy="100" r="80.5" stroke="#231C1C"/>
<circle cx="100" cy="100" r="85.5" stroke="#231C1C"/>
<circle cx="100" cy="100" r="90.5" stroke="#231C1C"/>
<circle cx="100" cy="100" r="95.5" stroke="#231C1C"/>
<circle cx="100" cy="100" r="65" fill="black"/>
<g filter="url(#filter0_i_101_14)">
<path d="M145.962 145.962C136.872 155.052 125.29 161.243 112.681 163.751C100.072 166.259 87.0028 164.972 75.1256 160.052C63.2484 155.132 53.0968 146.801 45.9545 136.112C38.8122 125.423 35 112.856 35 100C35 87.1442 38.8122 74.5771 45.9545 63.8879C53.0968 53.1987 63.2484 44.8675 75.1256 39.9478C87.0028 35.0281 100.072 33.7409 112.681 36.249C125.29 38.757 136.872 44.9476 145.962 54.0381L100 100L145.962 145.962Z" fill="#FE5F55"/>
</g>
<circle cx="100" cy="100" r="25" fill="black"/>
<defs>
<filter id="filter0_i_101_14" x="35" y="35" width="110.962" height="134" filterUnits="userSpaceOnUse" color-interpolation-filters="sRGB">
<feFlood flood-opacity="0" result="BackgroundImageFix"/>
<feBlend mode="normal" in="SourceGraphic" in2="BackgroundImageFix" result="shape"/>
<feColorMatrix in="SourceAlpha" type="matrix" values="0 0 0 0 0 0 0 0 0 0 0 0 0 0 0 0 0 0 127 0" result="hardAlpha"/>
<feOffset dy="4"/>
<feGaussianBlur stdDeviation="2"/>
<feComposite in2="hardAlpha" operator="arithmetic" k2="-1" k3="1"/>
<feColorMatrix type="matrix" values="0 0 0 0 0 0 0 0 0 0 0 0 0 0 0 0 0 0 0.25 0"/>
<feBlend mode="normal" in2="shape" result="effect1_innerShadow_101_14"/>
</filter>
</defs>
</svg>
